<svg width="192" height="192" xmlns="http://www.w3.org/2000/svg">
 <!-- Created with Method Draw - http://github.com/duopixel/Method-Draw/ -->
 <g>
  <title>background</title>
  <rect fill="#6200ee" id="canvas_background" height="194" width="194" y="-1" x="-1"/>
  <g display="none" overflow="visible" y="0" x="0" height="100%" width="100%" id="canvasGrid">
   <rect fill="url(#gridpattern)" stroke-width="0" y="0" x="0" height="100%" width="100%"/>
  </g>
 </g>
 <g>
  <title>Layer 1</title>
  <path stroke="#fff" id="svg_2" d="m38.299934,49.873752c0,0 1.22856,-5.794469 0,-7.757325c-1.230007,-1.962856 -1.720563,-3.270326 -4.425132,-4.206355s-1.719116,-0.749484 -3.68568,-0.653735c-1.966564,0.094098 -3.606092,1.30747 -3.606092,1.961205c0,0 -1.22856,0.094098 -1.719116,0.655386c-0.492003,0.561288 -1.311043,3.176228 -1.311043,3.831613s0.40952,5.048287 0.81904,5.982666l-0.487662,0.186546c-0.40952,5.419727 1.63808,6.075113 1.63808,6.075113c0.736557,5.048287 1.474562,2.898885 1.474562,4.206355s-0.738004,0.841931 -0.738004,0.841931s-0.654074,2.055303 -2.292155,2.803136c-1.63808,0.746182 -10.731451,4.764341 -11.470902,5.606273c-0.739451,0.843582 -0.655521,4.767643 -0.655521,4.767643l38.994122,0c0,0 0.085377,-3.924061 -0.654074,-4.767643c-0.740898,-0.843582 -9.834269,-4.86009 -11.472349,-5.606273c-1.63808,-0.747833 -2.292155,-2.803136 -2.292155,-2.803136s-0.738004,0.465539 -0.738004,-0.841931s0.738004,0.841931 1.476009,-4.206355c0,0 2.046153,-0.655386 1.63808,-6.075113l-0.492003,0z" fill-opacity="null" stroke-opacity="null" stroke-width="0" fill="#fff"/>
  <path id="svg_3" d="m-512.728941,45.699499c0,0 0.031503,-0.156606 0,-0.209656c-0.03154,-0.05305 -0.044119,-0.088387 -0.11347,-0.113685s-0.044082,-0.020256 -0.094509,-0.017668c-0.050427,0.002543 -0.092468,0.035337 -0.092468,0.053005c0,0 -0.031503,0.002543 -0.044082,0.017713c-0.012616,0.01517 -0.033618,0.085844 -0.033618,0.103557s0.010501,0.136439 0.021002,0.161693l-0.012505,0.005042c-0.010501,0.146478 0.042004,0.164191 0.042004,0.164191c0.018887,0.136439 0.037811,0.078348 0.037811,0.113685s-0.018924,0.022755 -0.018924,0.022755s-0.016772,0.055548 -0.058776,0.07576c-0.042004,0.020167 -0.275178,0.128765 -0.294139,0.15152c-0.018961,0.022799 -0.016809,0.128855 -0.016809,0.128855l0.999895,0c0,0 0.002189,-0.106055 -0.016772,-0.128855c-0.018998,-0.022799 -0.252172,-0.131353 -0.294176,-0.15152c-0.042004,-0.020212 -0.058776,-0.07576 -0.058776,-0.07576s-0.018924,0.012582 -0.018924,-0.022755s0.018924,0.022755 0.037848,-0.113685c0,0 0.052468,-0.017713 0.042004,-0.164191l-0.012616,0z" fill-opacity="null" stroke-opacity="null" stroke-width="0" stroke="#fff" fill="#fff"/>
  <path stroke="#fff" id="svg_4" d="m30.004558,87.05012c-8.836969,0 -15.999998,6.715737 -15.999998,15.000005c0,8.284694 7.16303,14.999998 15.999998,14.999998c8.836555,0 16.000004,-6.715304 16.000004,-14.999998c0,-8.284269 -7.163447,-15.000005 -16.000004,-15.000005zm1.46186,23.639399l-2.979977,0l0,-2.679128l2.979977,0l0,2.679128zm0,-5.539766l0,0.885431l-2.979977,0l0,-1.090967c0,-3.292115 3.996212,-3.814542 3.996212,-6.154363c0,-1.066912 -1.017522,-1.884195 -2.349613,-1.884195c-1.380368,0 -2.591064,0.953522 -2.591064,0.953522l-1.696587,-1.976394c0,0 1.672238,-1.63502 4.554314,-1.63502c2.737681,0 5.279612,1.589363 5.279612,4.268884c0.001277,3.748432 -4.212896,4.180714 -4.212896,6.633102l0,0.000001z" fill-opacity="null" stroke-opacity="null" stroke-width="0" fill="#fff"/>
  <path stroke="#fff" id="svg_6" d="m89.564993,49.118893l78.999992,0l0,14.999994l-78.999992,0l0,-14.999994z" fill-opacity="null" stroke-opacity="null" stroke-width="0" fill="#fff"/>
  <path stroke="#fff" id="svg_8" d="m31.00456,126.05012c-8.83697,0 -16,6.71574 -16,15c0,8.2847 7.16303,15 16,15c8.83655,0 16,-6.7153 16,-15c0,-8.28426 -7.16345,-15 -16,-15zm1.46186,23.6394l-2.97998,0l0,-2.67913l2.97998,0l0,2.67913zm0,-5.53977l0,0.88543l-2.97998,0l0,-1.09096c0,-3.29212 3.99621,-3.81455 3.99621,-6.15437c0,-1.06691 -1.01752,-1.88419 -2.34961,-1.88419c-1.38037,0 -2.59106,0.95352 -2.59106,0.95352l-1.69659,-1.97639c0,0 1.67224,-1.63502 4.55431,-1.63502c2.73768,0 5.27961,1.58936 5.27961,4.26888c0.00128,3.74843 -4.21289,4.18071 -4.21289,6.6331l0,0z" fill-opacity="null" stroke-opacity="null" stroke-width="0" fill="#fff"/>
  <path stroke="#fff" id="svg_9" d="m80.56499,134.11889l87.99999,0l0,15l-87.99999,0l0,-15z" fill-opacity="null" stroke-opacity="null" stroke-width="0" fill="#fff"/>
  <path stroke="#fff" id="svg_10" d="m64.564991,93.11889l104.999993,0l0,15l-104.999993,0l0,-15z" fill-opacity="null" stroke-opacity="null" stroke-width="0" fill="#fff"/>
 </g>
</svg>